<svg xmlns="http://www.w3.org/2000/svg" viewBox="0 0 100 100" width="100" height="100" role="img" aria-label="Polynoia"><title>Polynoia</title><defs><linearGradient id="c" x1="0" y1="0" x2="0" y2="1"><stop offset="0" stop-color="#fffdf9"/><stop offset="1" stop-color="#fbf6ec"/></linearGradient><linearGradient id="s" x1="0" y1="0" x2="0" y2="1"><stop offset="0" stop-color="#fff" stop-opacity="0.26"/><stop offset="0.55" stop-color="#fff" stop-opacity="0"/></linearGradient></defs><path d="M99.60 50.00L99.55 67.97L99.41 73.43L99.16 77.34L98.82 80.47L98.37 83.10L97.83 85.38L97.17 87.38L96.41 89.15L95.53 90.73L94.54 92.15L93.41 93.41L92.15 94.54L90.73 95.53L89.15 96.41L87.38 97.17L85.38 97.83L83.10 98.37L80.47 98.82L77.34 99.16L73.43 99.41L67.97 99.55L50.00 99.60L32.03 99.55L26.57 99.41L22.66 99.16L19.53 98.82L16.90 98.37L14.62 97.83L12.62 97.17L10.85 96.41L9.27 95.53L7.85 94.54L6.59 93.41L5.46 92.15L4.47 90.73L3.59 89.15L2.83 87.38L2.17 85.38L1.63 83.10L1.18 80.47L0.84 77.34L0.59 73.43L0.45 67.97L0.40 50.00L0.45 32.03L0.59 26.57L0.84 22.66L1.18 19.53L1.63 16.90L2.17 14.62L2.83 12.62L3.59 10.85L4.47 9.27L5.46 7.85L6.59 6.59L7.85 5.46L9.27 4.47L10.85 3.59L12.62 2.83L14.62 2.17L16.90 1.63L19.53 1.18L22.66 0.84L26.57 0.59L32.03 0.45L50.00 0.40L67.97 0.45L73.43 0.59L77.34 0.84L80.47 1.18L83.10 1.63L85.38 2.17L87.38 2.83L89.15 3.59L90.73 4.47L92.15 5.46L93.41 6.59L94.54 7.85L95.53 9.27L96.41 10.85L97.17 12.62L97.83 14.62L98.37 16.90L98.82 19.53L99.16 22.66L99.41 26.57L99.55 32.03L99.60 50.00Z" fill="url(#c)"/><g transform="translate(50 50) scale(1.08) translate(-50 -50)"><g style="isolation:isolate"><circle cx="50" cy="39" r="21" fill="#e96a3c" fill-opacity="0.86" style="mix-blend-mode:multiply"/><circle cx="38" cy="60" r="21" fill="#3aab8d" fill-opacity="0.86" style="mix-blend-mode:multiply"/><circle cx="62" cy="60" r="21" fill="#8a64d8" fill-opacity="0.86" style="mix-blend-mode:multiply"/></g></g><path d="M99.60 50.00L99.55 67.97L99.41 73.43L99.16 77.34L98.82 80.47L98.37 83.10L97.83 85.38L97.17 87.38L96.41 89.15L95.53 90.73L94.54 92.15L93.41 93.41L92.15 94.54L90.73 95.53L89.15 96.41L87.38 97.17L85.38 97.83L83.10 98.37L80.47 98.82L77.34 99.16L73.43 99.41L67.97 99.55L50.00 99.60L32.03 99.55L26.57 99.41L22.66 99.16L19.53 98.82L16.90 98.37L14.62 97.83L12.62 97.17L10.85 96.41L9.27 95.53L7.85 94.54L6.59 93.41L5.46 92.15L4.47 90.73L3.59 89.15L2.83 87.38L2.17 85.38L1.63 83.10L1.18 80.47L0.84 77.34L0.59 73.43L0.45 67.97L0.40 50.00L0.45 32.03L0.59 26.57L0.84 22.66L1.18 19.53L1.63 16.90L2.17 14.62L2.83 12.62L3.59 10.85L4.47 9.27L5.46 7.85L6.59 6.59L7.85 5.46L9.27 4.47L10.85 3.59L12.62 2.83L14.62 2.17L16.90 1.63L19.53 1.18L22.66 0.84L26.57 0.59L32.03 0.45L50.00 0.40L67.97 0.45L73.43 0.59L77.34 0.84L80.47 1.18L83.10 1.63L85.38 2.17L87.38 2.83L89.15 3.59L90.73 4.47L92.15 5.46L93.41 6.59L94.54 7.85L95.53 9.27L96.41 10.85L97.17 12.62L97.83 14.62L98.37 16.90L98.82 19.53L99.16 22.66L99.41 26.57L99.55 32.03L99.60 50.00Z" fill="url(#s)"/></svg>
