<svg xmlns="http://www.w3.org/2000/svg" viewBox="0 0 100 100" width="100" height="100" role="img" aria-label="Polynoia"><title>Polynoia</title><defs><linearGradient id="c" x1="0" y1="0" x2="0" y2="1"><stop offset="0" stop-color="#fffdf9"/><stop offset="1" stop-color="#fbf6ec"/></linearGradient><linearGradient id="s" x1="0" y1="0" x2="0" y2="1"><stop offset="0" stop-color="#fff" stop-opacity="0.26"/><stop offset="0.55" stop-color="#fff" stop-opacity="0"/></linearGradient></defs><path d="M99.40 50.00L99.34 64.05L99.16 69.52L98.86 73.63L98.44 77.02L97.89 79.94L97.22 82.51L96.42 84.80L95.50 86.86L94.43 88.71L93.23 90.38L91.88 91.88L90.38 93.23L88.71 94.43L86.86 95.50L84.80 96.42L82.51 97.22L79.94 97.89L77.02 98.44L73.63 98.86L69.52 99.16L64.05 99.34L50.00 99.40L35.95 99.34L30.48 99.16L26.37 98.86L22.98 98.44L20.06 97.89L17.49 97.22L15.20 96.42L13.14 95.50L11.29 94.43L9.62 93.23L8.12 91.88L6.77 90.38L5.57 88.71L4.50 86.86L3.58 84.80L2.78 82.51L2.11 79.94L1.56 77.02L1.14 73.63L0.84 69.52L0.66 64.05L0.60 50.00L0.66 35.95L0.84 30.48L1.14 26.37L1.56 22.98L2.11 20.06L2.78 17.49L3.58 15.20L4.50 13.14L5.57 11.29L6.77 9.62L8.12 8.12L9.62 6.77L11.29 5.57L13.14 4.50L15.20 3.58L17.49 2.78L20.06 2.11L22.98 1.56L26.37 1.14L30.48 0.84L35.95 0.66L50.00 0.60L64.05 0.66L69.52 0.84L73.63 1.14L77.02 1.56L79.94 2.11L82.51 2.78L84.80 3.58L86.86 4.50L88.71 5.57L90.38 6.77L91.88 8.12L93.23 9.62L94.43 11.29L95.50 13.14L96.42 15.20L97.22 17.49L97.89 20.06L98.44 22.98L98.86 26.37L99.16 30.48L99.34 35.95L99.40 50.00Z" fill="url(#c)"/><g style="isolation:isolate"><circle cx="50" cy="39" r="21" fill="#d97757" fill-opacity="0.92" style="mix-blend-mode:multiply"/><circle cx="38" cy="60" r="21" fill="#4f9b87" fill-opacity="0.92" style="mix-blend-mode:multiply"/><circle cx="62" cy="60" r="21" fill="#8470b8" fill-opacity="0.92" style="mix-blend-mode:multiply"/></g><path d="M99.40 50.00L99.34 64.05L99.16 69.52L98.86 73.63L98.44 77.02L97.89 79.94L97.22 82.51L96.42 84.80L95.50 86.86L94.43 88.71L93.23 90.38L91.88 91.88L90.38 93.23L88.71 94.43L86.86 95.50L84.80 96.42L82.51 97.22L79.94 97.89L77.02 98.44L73.63 98.86L69.52 99.16L64.05 99.34L50.00 99.40L35.95 99.34L30.48 99.16L26.37 98.86L22.98 98.44L20.06 97.89L17.49 97.22L15.20 96.42L13.14 95.50L11.29 94.43L9.62 93.23L8.12 91.88L6.77 90.38L5.57 88.71L4.50 86.86L3.58 84.80L2.78 82.51L2.11 79.94L1.56 77.02L1.14 73.63L0.84 69.52L0.66 64.05L0.60 50.00L0.66 35.95L0.84 30.48L1.14 26.37L1.56 22.98L2.11 20.06L2.78 17.49L3.58 15.20L4.50 13.14L5.57 11.29L6.77 9.62L8.12 8.12L9.62 6.77L11.29 5.57L13.14 4.50L15.20 3.58L17.49 2.78L20.06 2.11L22.98 1.56L26.37 1.14L30.48 0.84L35.95 0.66L50.00 0.60L64.05 0.66L69.52 0.84L73.63 1.14L77.02 1.56L79.94 2.11L82.51 2.78L84.80 3.58L86.86 4.50L88.71 5.57L90.38 6.77L91.88 8.12L93.23 9.62L94.43 11.29L95.50 13.14L96.42 15.20L97.22 17.49L97.89 20.06L98.44 22.98L98.86 26.37L99.16 30.48L99.34 35.95L99.40 50.00Z" fill="url(#s)"/><path d="M99.40 50.00L99.34 64.05L99.16 69.52L98.86 73.63L98.44 77.02L97.89 79.94L97.22 82.51L96.42 84.80L95.50 86.86L94.43 88.71L93.23 90.38L91.88 91.88L90.38 93.23L88.71 94.43L86.86 95.50L84.80 96.42L82.51 97.22L79.94 97.89L77.02 98.44L73.63 98.86L69.52 99.16L64.05 99.34L50.00 99.40L35.95 99.34L30.48 99.16L26.37 98.86L22.98 98.44L20.06 97.89L17.49 97.22L15.20 96.42L13.14 95.50L11.29 94.43L9.62 93.23L8.12 91.88L6.77 90.38L5.57 88.71L4.50 86.86L3.58 84.80L2.78 82.51L2.11 79.94L1.56 77.02L1.14 73.63L0.84 69.52L0.66 64.05L0.60 50.00L0.66 35.95L0.84 30.48L1.14 26.37L1.56 22.98L2.11 20.06L2.78 17.49L3.58 15.20L4.50 13.14L5.57 11.29L6.77 9.62L8.12 8.12L9.62 6.77L11.29 5.57L13.14 4.50L15.20 3.58L17.49 2.78L20.06 2.11L22.98 1.56L26.37 1.14L30.48 0.84L35.95 0.66L50.00 0.60L64.05 0.66L69.52 0.84L73.63 1.14L77.02 1.56L79.94 2.11L82.51 2.78L84.80 3.58L86.86 4.50L88.71 5.57L90.38 6.77L91.88 8.12L93.23 9.62L94.43 11.29L95.50 13.14L96.42 15.20L97.22 17.49L97.89 20.06L98.44 22.98L98.86 26.37L99.16 30.48L99.34 35.95L99.40 50.00Z" fill="none" stroke="rgba(255,255,255,0.10)" stroke-width="1"/></svg>
